<svg xmlns="http://www.w3.org/2000/svg" version="1.1" xmlns:xlink="http://www.w3.org/1999/xlink" xmlns:svgjs="http://svgjs.dev/svgjs" viewBox="0 0 1422 800"><circle r="12.5" cx="509" cy="360" fill="hsl(267, 22%, 52%)" opacity="0.35"></circle><circle r="16.5" cx="1337" cy="604" fill="hsl(293, 22%, 52%)" opacity="0.36"></circle><circle r="16" cx="1123" cy="658" fill="hsl(238, 22%, 52%)" opacity="0.54"></circle><circle r="10.5" cx="1031" cy="24" fill="hsl(146, 22%, 52%)" opacity="0.95"></circle><circle r="11.5" cx="386" cy="654" fill="hsl(264, 22%, 52%)" opacity="0.89"></circle><circle r="8" cx="658" cy="583" fill="hsl(280, 22%, 52%)" opacity="0.77"></circle><circle r="9" cx="1408" cy="730" fill="hsl(291, 22%, 52%)" opacity="0.41"></circle><circle r="10" cx="894" cy="98" fill="hsl(168, 22%, 52%)" opacity="0.39"></circle><circle r="11" cx="92" cy="452" fill="hsl(237, 22%, 52%)" opacity="0.94"></circle><circle r="8" cx="934" cy="574" fill="hsl(200, 22%, 52%)" opacity="0.58"></circle><circle r="11.5" cx="162" cy="731" fill="hsl(261, 22%, 52%)" opacity="0.75"></circle><circle r="10" cx="555" cy="194" fill="hsl(273, 22%, 52%)" opacity="0.57"></circle><circle r="10.5" cx="1162" cy="40" fill="hsl(211, 22%, 52%)" opacity="0.61"></circle><circle r="11" cx="574" cy="109" fill="hsl(266, 22%, 52%)" opacity="0.69"></circle><circle r="11.5" cx="1335" cy="105" fill="hsl(298, 22%, 52%)" opacity="0.80"></circle><circle r="13" cx="145" cy="324" fill="hsl(254, 22%, 52%)" opacity="0.21"></circle><circle r="8.5" cx="625" cy="362" fill="hsl(281, 22%, 52%)" opacity="0.42"></circle><circle r="13.5" cx="624" cy="538" fill="hsl(281, 22%, 52%)" opacity="0.68"></circle><circle r="11.5" cx="797" cy="44" fill="hsl(193, 22%, 52%)" opacity="0.61"></circle><circle r="10.5" cx="580" cy="299" fill="hsl(278, 22%, 52%)" opacity="0.34"></circle><circle r="13.5" cx="444" cy="498" fill="hsl(263, 22%, 52%)" opacity="0.94"></circle><circle r="13" cx="61" cy="332" fill="hsl(214, 22%, 52%)" opacity="0.58"></circle><circle r="6" cx="962" cy="73" fill="hsl(154, 22%, 52%)" opacity="0.31"></circle><circle r="8.5" cx="1395" cy="766" fill="hsl(293, 22%, 52%)" opacity="0.84"></circle><circle r="2.5" cx="1418" cy="300" fill="hsl(291, 22%, 52%)" opacity="0.68"></circle><circle r="10.5" cx="612" cy="183" fill="hsl(280, 22%, 52%)" opacity="0.47"></circle><circle r="8.5" cx="1024" cy="745" fill="hsl(208, 22%, 52%)" opacity="0.48"></circle><circle r="12" cx="1127" cy="147" fill="hsl(231, 22%, 52%)" opacity="0.28"></circle><circle r="10" cx="220" cy="684" fill="hsl(269, 22%, 52%)" opacity="0.26"></circle><circle r="15" cx="1108" cy="580" fill="hsl(229, 22%, 52%)" opacity="0.81"></circle><circle r="5.5" cx="846" cy="409" fill="hsl(221, 22%, 52%)" opacity="0.11"></circle><circle r="11.5" cx="181" cy="24" fill="hsl(292, 22%, 52%)" opacity="0.53"></circle><circle r="9" cx="18" cy="755" fill="hsl(189, 22%, 52%)" opacity="0.40"></circle><circle r="12.5" cx="135" cy="450" fill="hsl(254, 22%, 52%)" opacity="0.16"></circle><circle r="8" cx="499" cy="269" fill="hsl(267, 22%, 52%)" opacity="0.17"></circle><circle r="11" cx="952" cy="431" fill="hsl(200, 22%, 52%)" opacity="0.27"></circle><circle r="14" cx="1283" cy="258" fill="hsl(286, 22%, 52%)" opacity="0.20"></circle><circle r="10.5" cx="315" cy="612" fill="hsl(268, 22%, 52%)" opacity="0.20"></circle><circle r="11.5" cx="742" cy="427" fill="hsl(263, 22%, 52%)" opacity="0.11"></circle><circle r="14" cx="815" cy="533" fill="hsl(238, 22%, 52%)" opacity="0.61"></circle><circle r="11" cx="534" cy="703" fill="hsl(273, 22%, 52%)" opacity="0.36"></circle><circle r="11.5" cx="556" cy="569" fill="hsl(276, 22%, 52%)" opacity="0.78"></circle><circle r="11" cx="52" cy="68" fill="hsl(221, 22%, 52%)" opacity="0.68"></circle><circle r="9.5" cx="54" cy="701" fill="hsl(214, 22%, 52%)" opacity="0.45"></circle><circle r="7" cx="935" cy="92" fill="hsl(162, 22%, 52%)" opacity="0.89"></circle><circle r="8.5" cx="1004" cy="125" fill="hsl(180, 22%, 52%)" opacity="0.80"></circle><circle r="11.5" cx="893" cy="533" fill="hsl(208, 22%, 52%)" opacity="0.44"></circle><circle r="14" cx="241" cy="414" fill="hsl(271, 22%, 52%)" opacity="0.94"></circle><circle r="6" cx="938" cy="120" fill="hsl(172, 22%, 52%)" opacity="0.29"></circle><circle r="10" cx="990" cy="582" fill="hsl(200, 22%, 52%)" opacity="0.78"></circle><circle r="10" cx="84" cy="89" fill="hsl(234, 22%, 52%)" opacity="1.00"></circle><circle r="11" cx="105" cy="120" fill="hsl(245, 22%, 52%)" opacity="0.93"></circle><circle r="9.5" cx="863" cy="41" fill="hsl(161, 22%, 52%)" opacity="0.88"></circle><circle r="11.5" cx="315" cy="687" fill="hsl(268, 22%, 52%)" opacity="0.81"></circle><circle r="12.5" cx="38" cy="514" fill="hsl(202, 22%, 52%)" opacity="0.20"></circle><circle r="7" cx="915" cy="187" fill="hsl(203, 22%, 52%)" opacity="0.58"></circle><circle r="15" cx="223" cy="257" fill="hsl(271, 22%, 52%)" opacity="0.20"></circle><circle r="11" cx="531" cy="80" fill="hsl(270, 22%, 52%)" opacity="0.85"></circle><circle r="9" cx="275" cy="305" fill="hsl(271, 22%, 52%)" opacity="0.52"></circle><circle r="7.5" cx="290" cy="756" fill="hsl(270, 22%, 52%)" opacity="0.78"></circle><circle r="10" cx="428" cy="305" fill="hsl(263, 22%, 52%)" opacity="0.37"></circle><circle r="11.5" cx="256" cy="569" fill="hsl(272, 22%, 52%)" opacity="0.83"></circle><circle r="10" cx="1395" cy="270" fill="hsl(293, 22%, 52%)" opacity="0.14"></circle><circle r="9" cx="780" cy="401" fill="hsl(247, 22%, 52%)" opacity="0.20"></circle><circle r="8.5" cx="726" cy="494" fill="hsl(269, 22%, 52%)" opacity="0.60"></circle><circle r="6" cx="997" cy="69" fill="hsl(156, 22%, 52%)" opacity="0.32"></circle><circle r="18.5" cx="417" cy="427" fill="hsl(263, 22%, 52%)" opacity="0.58"></circle><circle r="13.5" cx="1295" cy="110" fill="hsl(291, 22%, 52%)" opacity="0.94"></circle><circle r="6" cx="912" cy="243" fill="hsl(203, 22%, 52%)" opacity="0.30"></circle><circle r="7.5" cx="1294" cy="48" fill="hsl(282, 22%, 52%)" opacity="0.54"></circle><circle r="12" cx="50" cy="559" fill="hsl(214, 22%, 52%)" opacity="0.17"></circle><circle r="9.5" cx="1243" cy="778" fill="hsl(277, 22%, 52%)" opacity="0.26"></circle><circle r="9.5" cx="1031" cy="153" fill="hsl(194, 22%, 52%)" opacity="0.58"></circle><circle r="11" cx="184" cy="362" fill="hsl(266, 22%, 52%)" opacity="0.71"></circle><circle r="11.5" cx="210" cy="390" fill="hsl(269, 22%, 52%)" opacity="0.71"></circle><circle r="5.5" cx="18" cy="133" fill="hsl(189, 22%, 52%)" opacity="0.28"></circle><circle r="13" cx="997" cy="434" fill="hsl(200, 22%, 52%)" opacity="0.96"></circle><circle r="7.5" cx="976" cy="99" fill="hsl(163, 22%, 52%)" opacity="0.53"></circle><circle r="12.5" cx="830" cy="347" fill="hsl(230, 22%, 52%)" opacity="0.44"></circle><circle r="10.5" cx="676" cy="692" fill="hsl(278, 22%, 52%)" opacity="0.87"></circle><circle r="10" cx="1143" cy="200" fill="hsl(247, 22%, 52%)" opacity="0.65"></circle><circle r="8.5" cx="330" cy="241" fill="hsl(268, 22%, 52%)" opacity="0.96"></circle><circle r="8.5" cx="21" cy="169" fill="hsl(189, 22%, 52%)" opacity="0.51"></circle><circle r="10" cx="536" cy="141" fill="hsl(269, 22%, 52%)" opacity="0.83"></circle><circle r="7" cx="91" cy="650" fill="hsl(237, 22%, 52%)" opacity="0.30"></circle><circle r="4.5" cx="15" cy="105" fill="hsl(189, 22%, 52%)" opacity="0.34"></circle><circle r="11" cx="1168" cy="632" fill="hsl(255, 22%, 52%)" opacity="0.20"></circle><circle r="11" cx="711" cy="136" fill="hsl(257, 22%, 52%)" opacity="0.71"></circle><circle r="16.5" cx="190" cy="309" fill="hsl(266, 22%, 52%)" opacity="0.61"></circle><circle r="15" cx="144" cy="163" fill="hsl(259, 22%, 52%)" opacity="0.12"></circle><circle r="14.5" cx="424" cy="184" fill="hsl(263, 22%, 52%)" opacity="0.42"></circle><circle r="8.5" cx="850" cy="383" fill="hsl(221, 22%, 52%)" opacity="0.67"></circle><circle r="10" cx="19" cy="644" fill="hsl(189, 22%, 52%)" opacity="0.14"></circle><circle r="7" cx="1387" cy="790" fill="hsl(293, 22%, 52%)" opacity="0.18"></circle><circle r="9.5" cx="931" cy="157" fill="hsl(193, 22%, 52%)" opacity="0.13"></circle><circle r="10" cx="13" cy="481" fill="hsl(189, 22%, 52%)" opacity="0.37"></circle><circle r="9.5" cx="748" cy="127" fill="hsl(235, 22%, 52%)" opacity="0.47"></circle><circle r="10" cx="1272" cy="187" fill="hsl(286, 22%, 52%)" opacity="0.16"></circle><circle r="8" cx="851" cy="437" fill="hsl(221, 22%, 52%)" opacity="0.74"></circle><circle r="6" cx="969" cy="694" fill="hsl(199, 22%, 52%)" opacity="0.81"></circle><circle r="10" cx="154" cy="775" fill="hsl(254, 22%, 52%)" opacity="0.29"></circle><circle r="9.5" cx="905" cy="591" fill="hsl(208, 22%, 52%)" opacity="0.50"></circle><circle r="15" cx="1335" cy="146" fill="hsl(299, 22%, 52%)" opacity="0.25"></circle><circle r="8" cx="409" cy="284" fill="hsl(263, 22%, 52%)" opacity="0.25"></circle><circle r="13" cx="548" cy="319" fill="hsl(273, 22%, 52%)" opacity="0.85"></circle><circle r="14" cx="1064" cy="278" fill="hsl(214, 22%, 52%)" opacity="0.29"></circle><circle r="12.5" cx="609" cy="261" fill="hsl(280, 22%, 52%)" opacity="0.78"></circle><circle r="16" cx="446" cy="621" fill="hsl(264, 22%, 52%)" opacity="0.52"></circle><circle r="9" cx="1384" cy="357" fill="hsl(293, 22%, 52%)" opacity="0.71"></circle><circle r="11.5" cx="239" cy="298" fill="hsl(271, 22%, 52%)" opacity="0.68"></circle><circle r="12.5" cx="57" cy="280" fill="hsl(214, 22%, 52%)" opacity="0.55"></circle><circle r="13" cx="1295" cy="162" fill="hsl(293, 22%, 52%)" opacity="0.53"></circle><circle r="14" cx="764" cy="535" fill="hsl(255, 22%, 52%)" opacity="0.84"></circle><circle r="10" cx="84" cy="771" fill="hsl(226, 22%, 52%)" opacity="0.88"></circle><circle r="8.5" cx="283" cy="517" fill="hsl(271, 22%, 52%)" opacity="0.89"></circle><circle r="14" cx="986" cy="496" fill="hsl(200, 22%, 52%)" opacity="0.79"></circle><circle r="8" cx="950" cy="259" fill="hsl(200, 22%, 52%)" opacity="0.23"></circle><circle r="8" cx="935" cy="542" fill="hsl(200, 22%, 52%)" opacity="0.96"></circle><circle r="12" cx="142" cy="555" fill="hsl(254, 22%, 52%)" opacity="0.19"></circle><circle r="7.5" cx="475" cy="11" fill="hsl(286, 22%, 52%)" opacity="0.81"></circle><circle r="8" cx="20" cy="320" fill="hsl(189, 22%, 52%)" opacity="0.76"></circle><circle r="10.5" cx="656" cy="61" fill="hsl(252, 22%, 52%)" opacity="0.80"></circle><circle r="16" cx="639" cy="492" fill="hsl(281, 22%, 52%)" opacity="0.12"></circle><circle r="18" cx="1154" cy="768" fill="hsl(247, 22%, 52%)" opacity="0.30"></circle><circle r="2.5" cx="4" cy="128" fill="hsl(189, 22%, 52%)" opacity="0.62"></circle><circle r="7.5" cx="524" cy="591" fill="hsl(270, 22%, 52%)" opacity="0.95"></circle><circle r="15" cx="1250" cy="106" fill="hsl(279, 22%, 52%)" opacity="0.29"></circle><circle r="8.5" cx="805" cy="449" fill="hsl(238, 22%, 52%)" opacity="0.27"></circle><circle r="12.5" cx="1070" cy="777" fill="hsl(221, 22%, 52%)" opacity="0.36"></circle><circle r="11" cx="340" cy="187" fill="hsl(267, 22%, 52%)" opacity="0.97"></circle><circle r="7" cx="976" cy="38" fill="hsl(136, 22%, 52%)" opacity="0.68"></circle><circle r="11" cx="1072" cy="605" fill="hsl(221, 22%, 52%)" opacity="0.85"></circle><circle r="9" cx="1252" cy="15" fill="hsl(250, 22%, 52%)" opacity="0.17"></circle><circle r="9.5" cx="1066" cy="727" fill="hsl(214, 22%, 52%)" opacity="0.60"></circle><circle r="8" cx="1191" cy="15" fill="hsl(213, 22%, 52%)" opacity="0.59"></circle><circle r="13" cx="723" cy="387" fill="hsl(269, 22%, 52%)" opacity="0.58"></circle><circle r="18" cx="1271" cy="480" fill="hsl(286, 22%, 52%)" opacity="0.89"></circle><circle r="12" cx="516" cy="652" fill="hsl(270, 22%, 52%)" opacity="0.74"></circle><circle r="9.5" cx="503" cy="323" fill="hsl(267, 22%, 52%)" opacity="0.51"></circle><circle r="10.5" cx="107" cy="569" fill="hsl(237, 22%, 52%)" opacity="0.67"></circle><circle r="9.5" cx="20" cy="697" fill="hsl(189, 22%, 52%)" opacity="0.89"></circle><circle r="11" cx="1207" cy="392" fill="hsl(270, 22%, 52%)" opacity="0.34"></circle><circle r="11" cx="197" cy="656" fill="hsl(266, 22%, 52%)" opacity="0.53"></circle><circle r="10" cx="1404" cy="241" fill="hsl(291, 22%, 52%)" opacity="0.33"></circle><circle r="16.5" cx="1167" cy="340" fill="hsl(255, 22%, 52%)" opacity="0.61"></circle><circle r="10.5" cx="616" cy="574" fill="hsl(280, 22%, 52%)" opacity="0.24"></circle><circle r="8.5" cx="1190" cy="452" fill="hsl(263, 22%, 52%)" opacity="0.97"></circle><circle r="11.5" cx="354" cy="299" fill="hsl(267, 22%, 52%)" opacity="0.31"></circle><circle r="11.5" cx="85" cy="521" fill="hsl(226, 22%, 52%)" opacity="0.98"></circle><circle r="12" cx="520" cy="754" fill="hsl(270, 22%, 52%)" opacity="0.74"></circle><circle r="17" cx="680" cy="232" fill="hsl(278, 22%, 52%)" opacity="0.21"></circle><circle r="8.5" cx="492" cy="34" fill="hsl(279, 22%, 52%)" opacity="0.85"></circle><circle r="7.5" cx="527" cy="169" fill="hsl(269, 22%, 52%)" opacity="0.69"></circle><circle r="20.5" cx="172" cy="238" fill="hsl(261, 22%, 52%)" opacity="0.21"></circle><circle r="11.5" cx="1356" cy="370" fill="hsl(293, 22%, 52%)" opacity="0.56"></circle><circle r="13" cx="579" cy="28" fill="hsl(267, 22%, 52%)" opacity="0.15"></circle><circle r="14.5" cx="1107" cy="723" fill="hsl(229, 22%, 52%)" opacity="0.94"></circle><circle r="8" cx="830" cy="17" fill="hsl(168, 22%, 52%)" opacity="0.30"></circle><circle r="11.5" cx="264" cy="448" fill="hsl(272, 22%, 52%)" opacity="0.36"></circle><circle r="12" cx="1377" cy="656" fill="hsl(293, 22%, 52%)" opacity="0.79"></circle><circle r="13.5" cx="586" cy="359" fill="hsl(278, 22%, 52%)" opacity="0.47"></circle><circle r="11.5" cx="846" cy="233" fill="hsl(221, 22%, 52%)" opacity="0.32"></circle><circle r="4.5" cx="928" cy="228" fill="hsl(203, 22%, 52%)" opacity="0.83"></circle><circle r="10" cx="421" cy="719" fill="hsl(263, 22%, 52%)" opacity="0.66"></circle><circle r="10.5" cx="454" cy="228" fill="hsl(264, 22%, 52%)" opacity="0.86"></circle><circle r="9" cx="462" cy="671" fill="hsl(264, 22%, 52%)" opacity="0.80"></circle><circle r="13" cx="1280" cy="310" fill="hsl(286, 22%, 52%)" opacity="0.68"></circle><circle r="18" cx="1343" cy="200" fill="hsl(293, 22%, 52%)" opacity="0.64"></circle><circle r="12.5" cx="301" cy="477" fill="hsl(270, 22%, 52%)" opacity="0.99"></circle><circle r="10" cx="1243" cy="398" fill="hsl(277, 22%, 52%)" opacity="0.34"></circle><circle r="10" cx="873" cy="462" fill="hsl(214, 22%, 52%)" opacity="0.38"></circle><circle r="13" cx="937" cy="319" fill="hsl(200, 22%, 52%)" opacity="0.63"></circle><circle r="10.5" cx="791" cy="486" fill="hsl(247, 22%, 52%)" opacity="0.61"></circle><circle r="6" cx="793" cy="423" fill="hsl(247, 22%, 52%)" opacity="0.34"></circle><circle r="9" cx="1184" cy="483" fill="hsl(263, 22%, 52%)" opacity="0.53"></circle><circle r="11" cx="605" cy="133" fill="hsl(266, 22%, 52%)" opacity="0.88"></circle><circle r="12" cx="72" cy="150" fill="hsl(231, 22%, 52%)" opacity="0.31"></circle><circle r="12" cx="265" cy="121" fill="hsl(289, 22%, 52%)" opacity="0.32"></circle><circle r="5.5" cx="813" cy="401" fill="hsl(238, 22%, 52%)" opacity="0.21"></circle><circle r="16" cx="461" cy="559" fill="hsl(264, 22%, 52%)" opacity="0.37"></circle><circle r="9.5" cx="424" cy="14" fill="hsl(291, 22%, 52%)" opacity="0.55"></circle><circle r="13.5" cx="1211" cy="226" fill="hsl(270, 22%, 52%)" opacity="0.43"></circle><circle r="11.5" cx="245" cy="533" fill="hsl(272, 22%, 52%)" opacity="0.36"></circle><circle r="8.5" cx="301" cy="584" fill="hsl(270, 22%, 52%)" opacity="0.59"></circle><circle r="11" cx="211" cy="55" fill="hsl(295, 22%, 52%)" opacity="0.47"></circle><circle r="12.5" cx="699" cy="433" fill="hsl(275, 22%, 52%)" opacity="0.26"></circle><circle r="11.5" cx="908" cy="427" fill="hsl(208, 22%, 52%)" opacity="0.99"></circle><circle r="9" cx="260" cy="659" fill="hsl(272, 22%, 52%)" opacity="0.57"></circle><circle r="11.5" cx="259" cy="488" fill="hsl(272, 22%, 52%)" opacity="0.66"></circle><circle r="11.5" cx="1375" cy="26" fill="hsl(287, 22%, 52%)" opacity="0.36"></circle><circle r="15" cx="1322" cy="655" fill="hsl(292, 22%, 52%)" opacity="0.10"></circle><circle r="13" cx="688" cy="728" fill="hsl(278, 22%, 52%)" opacity="0.51"></circle><circle r="6.5" cx="957" cy="224" fill="hsl(199, 22%, 52%)" opacity="0.92"></circle><circle r="7" cx="1107" cy="15" fill="hsl(162, 22%, 52%)" opacity="0.65"></circle><circle r="9" cx="723" cy="464" fill="hsl(269, 22%, 52%)" opacity="0.40"></circle><circle r="10" cx="1081" cy="226" fill="hsl(221, 22%, 52%)" opacity="0.20"></circle><circle r="6.5" cx="65" cy="623" fill="hsl(214, 22%, 52%)" opacity="0.83"></circle><circle r="8.5" cx="903" cy="698" fill="hsl(208, 22%, 52%)" opacity="0.46"></circle><circle r="10" cx="756" cy="23" fill="hsl(205, 22%, 52%)" opacity="0.77"></circle><circle r="14" cx="626" cy="24" fill="hsl(258, 22%, 52%)" opacity="0.58"></circle><circle r="9.5" cx="846" cy="782" fill="hsl(221, 22%, 52%)" opacity="0.32"></circle><circle r="9" cx="1028" cy="712" fill="hsl(208, 22%, 52%)" opacity="0.17"></circle><circle r="13" cx="679" cy="104" fill="hsl(251, 22%, 52%)" opacity="0.57"></circle><circle r="6.5" cx="283" cy="337" fill="hsl(271, 22%, 52%)" opacity="0.51"></circle><circle r="15" cx="826" cy="110" fill="hsl(189, 22%, 52%)" opacity="0.46"></circle><circle r="8" cx="935" cy="753" fill="hsl(200, 22%, 52%)" opacity="0.67"></circle><circle r="11.5" cx="1232" cy="145" fill="hsl(278, 22%, 52%)" opacity="0.43"></circle><circle r="14" cx="1024" cy="545" fill="hsl(208, 22%, 52%)" opacity="0.31"></circle><circle r="12" cx="103" cy="379" fill="hsl(237, 22%, 52%)" opacity="0.55"></circle><circle r="6.5" cx="1408" cy="318" fill="hsl(291, 22%, 52%)" opacity="0.54"></circle><circle r="18" cx="1311" cy="340" fill="hsl(290, 22%, 52%)" opacity="0.25"></circle><circle r="14" cx="609" cy="723" fill="hsl(280, 22%, 52%)" opacity="0.82"></circle><circle r="7.5" cx="530" cy="615" fill="hsl(270, 22%, 52%)" opacity="0.80"></circle><circle r="15" cx="362" cy="23" fill="hsl(295, 22%, 52%)" opacity="0.36"></circle><circle r="10" cx="1173" cy="183" fill="hsl(255, 22%, 52%)" opacity="0.45"></circle><circle r="17.5" cx="1047" cy="448" fill="hsl(214, 22%, 52%)" opacity="0.68"></circle><circle r="11" cx="276" cy="22" fill="hsl(302, 22%, 52%)" opacity="0.16"></circle><circle r="12.5" cx="405" cy="606" fill="hsl(263, 22%, 52%)" opacity="0.10"></circle><circle r="11" cx="23" cy="592" fill="hsl(202, 22%, 52%)" opacity="0.21"></circle><circle r="10" cx="772" cy="618" fill="hsl(255, 22%, 52%)" opacity="0.43"></circle><circle r="13.5" cx="628" cy="91" fill="hsl(260, 22%, 52%)" opacity="0.54"></circle><circle r="12.5" cx="893" cy="384" fill="hsl(208, 22%, 52%)" opacity="0.38"></circle><circle r="16" cx="1286" cy="540" fill="hsl(286, 22%, 52%)" opacity="0.85"></circle><circle r="17.5" cx="1326" cy="461" fill="hsl(292, 22%, 52%)" opacity="1.00"></circle><circle r="18" cx="786" cy="765" fill="hsl(247, 22%, 52%)" opacity="0.54"></circle><circle r="12" cx="406" cy="141" fill="hsl(270, 22%, 52%)" opacity="0.41"></circle><circle r="8.5" cx="602" cy="318" fill="hsl(280, 22%, 52%)" opacity="0.72"></circle><circle r="9" cx="1050" cy="680" fill="hsl(214, 22%, 52%)" opacity="0.43"></circle><circle r="11" cx="1150" cy="475" fill="hsl(247, 22%, 52%)" opacity="0.69"></circle><circle r="14" cx="1139" cy="537" fill="hsl(247, 22%, 52%)" opacity="0.52"></circle><circle r="10" cx="1406" cy="393" fill="hsl(291, 22%, 52%)" opacity="0.59"></circle><circle r="9.5" cx="421" cy="761" fill="hsl(263, 22%, 52%)" opacity="0.27"></circle><circle r="11.5" cx="1307" cy="693" fill="hsl(290, 22%, 52%)" opacity="0.32"></circle><circle r="12.5" cx="333" cy="368" fill="hsl(268, 22%, 52%)" opacity="0.89"></circle><circle r="12" cx="404" cy="685" fill="hsl(263, 22%, 52%)" opacity="0.89"></circle><circle r="17" cx="386" cy="350" fill="hsl(264, 22%, 52%)" opacity="0.95"></circle><circle r="12.5" cx="778" cy="578" fill="hsl(247, 22%, 52%)" opacity="0.75"></circle><circle r="12.5" cx="448" cy="780" fill="hsl(264, 22%, 52%)" opacity="0.11"></circle><circle r="9" cx="220" cy="514" fill="hsl(269, 22%, 52%)" opacity="0.53"></circle><circle r="10.5" cx="494" cy="589" fill="hsl(267, 22%, 52%)" opacity="0.12"></circle><circle r="16" cx="1385" cy="430" fill="hsl(293, 22%, 52%)" opacity="0.54"></circle><circle r="7" cx="692" cy="13" fill="hsl(237, 22%, 52%)" opacity="0.65"></circle><circle r="6.5" cx="997" cy="732" fill="hsl(200, 22%, 52%)" opacity="0.30"></circle><circle r="9" cx="278" cy="785" fill="hsl(271, 22%, 52%)" opacity="0.46"></circle><circle r="10.5" cx="1004" cy="199" fill="hsl(203, 22%, 52%)" opacity="0.15"></circle><circle r="9" cx="1126" cy="235" fill="hsl(238, 22%, 52%)" opacity="0.67"></circle><circle r="9" cx="771" cy="452" fill="hsl(255, 22%, 52%)" opacity="0.17"></circle><circle r="12.5" cx="37" cy="444" fill="hsl(202, 22%, 52%)" opacity="0.42"></circle><circle r="11.5" cx="170" cy="632" fill="hsl(261, 22%, 52%)" opacity="0.34"></circle><circle r="11" cx="241" cy="21" fill="hsl(301, 22%, 52%)" opacity="0.89"></circle><circle r="14" cx="683" cy="509" fill="hsl(278, 22%, 52%)" opacity="0.52"></circle><circle r="8" cx="474" cy="748" fill="hsl(265, 22%, 52%)" opacity="0.47"></circle><circle r="17" cx="551" cy="443" fill="hsl(273, 22%, 52%)" opacity="0.61"></circle><circle r="10.5" cx="907" cy="780" fill="hsl(208, 22%, 52%)" opacity="0.90"></circle><circle r="12" cx="533" cy="539" fill="hsl(273, 22%, 52%)" opacity="0.82"></circle><circle r="10" cx="279" cy="366" fill="hsl(271, 22%, 52%)" opacity="0.51"></circle><circle r="15" cx="1367" cy="312" fill="hsl(293, 22%, 52%)" opacity="0.45"></circle><circle r="13" cx="1246" cy="55" fill="hsl(266, 22%, 52%)" opacity="0.97"></circle><circle r="6.5" cx="1080" cy="69" fill="hsl(185, 22%, 52%)" opacity="0.20"></circle><circle r="15.5" cx="156" cy="114" fill="hsl(275, 22%, 52%)" opacity="0.45"></circle><circle r="11" cx="568" cy="225" fill="hsl(276, 22%, 52%)" opacity="0.64"></circle><circle r="16.5" cx="1395" cy="201" fill="hsl(293, 22%, 52%)" opacity="0.38"></circle><circle r="8.5" cx="487" cy="650" fill="hsl(265, 22%, 52%)" opacity="0.96"></circle><circle r="10.5" cx="58" cy="232" fill="hsl(214, 22%, 52%)" opacity="0.56"></circle><circle r="13" cx="396" cy="85" fill="hsl(284, 22%, 52%)" opacity="0.92"></circle><circle r="12.5" cx="1220" cy="480" fill="hsl(270, 22%, 52%)" opacity="0.73"></circle><circle r="11" cx="1192" cy="154" fill="hsl(261, 22%, 52%)" opacity="0.59"></circle><circle r="16" cx="742" cy="193" fill="hsl(263, 22%, 52%)" opacity="0.52"></circle><circle r="12.5" cx="294" cy="653" fill="hsl(270, 22%, 52%)" opacity="0.21"></circle><circle r="9.5" cx="1072" cy="188" fill="hsl(221, 22%, 52%)" opacity="0.91"></circle><circle r="15" cx="521" cy="485" fill="hsl(270, 22%, 52%)" opacity="0.24"></circle><circle r="7" cx="90" cy="484" fill="hsl(237, 22%, 52%)" opacity="0.73"></circle><circle r="11.5" cx="482" cy="95" fill="hsl(271, 22%, 52%)" opacity="0.62"></circle><circle r="13.5" cx="1397" cy="588" fill="hsl(293, 22%, 52%)" opacity="0.33"></circle><circle r="9.5" cx="1292" cy="74" fill="hsl(287, 22%, 52%)" opacity="0.54"></circle><circle r="9.5" cx="478" cy="720" fill="hsl(265, 22%, 52%)" opacity="0.79"></circle><circle r="17" cx="1229" cy="578" fill="hsl(277, 22%, 52%)" opacity="0.61"></circle><circle r="8" cx="508" cy="712" fill="hsl(267, 22%, 52%)" opacity="0.10"></circle><circle r="10.5" cx="875" cy="617" fill="hsl(214, 22%, 52%)" opacity="0.11"></circle><circle r="10" cx="223" cy="778" fill="hsl(271, 22%, 52%)" opacity="0.78"></circle><circle r="17.5" cx="1073" cy="518" fill="hsl(221, 22%, 52%)" opacity="0.27"></circle><circle r="7" cx="956" cy="197" fill="hsl(199, 22%, 52%)" opacity="0.62"></circle><circle r="19.5" cx="1244" cy="705" fill="hsl(277, 22%, 52%)" opacity="0.91"></circle><circle r="14.5" cx="310" cy="114" fill="hsl(287, 22%, 52%)" opacity="0.21"></circle><circle r="12" cx="1159" cy="388" fill="hsl(255, 22%, 52%)" opacity="0.65"></circle><circle r="14.5" cx="690" cy="183" fill="hsl(275, 22%, 52%)" opacity="0.99"></circle><circle r="11" cx="186" cy="504" fill="hsl(266, 22%, 52%)" opacity="0.85"></circle><circle r="8.5" cx="901" cy="44" fill="hsl(145, 22%, 52%)" opacity="0.27"></circle><circle r="11.5" cx="810" cy="209" fill="hsl(238, 22%, 52%)" opacity="0.66"></circle><circle r="8" cx="934" cy="53" fill="hsl(145, 22%, 52%)" opacity="0.73"></circle><circle r="9.5" cx="1391" cy="622" fill="hsl(293, 22%, 52%)" opacity="0.26"></circle><circle r="11" cx="1023" cy="620" fill="hsl(208, 22%, 52%)" opacity="0.94"></circle><circle r="12" cx="1164" cy="234" fill="hsl(255, 22%, 52%)" opacity="0.78"></circle><circle r="16" cx="401" cy="523" fill="hsl(263, 22%, 52%)" opacity="0.28"></circle><circle r="9" cx="880" cy="284" fill="hsl(214, 22%, 52%)" opacity="0.89"></circle><circle r="12" cx="676" cy="460" fill="hsl(278, 22%, 52%)" opacity="0.97"></circle><circle r="18" cx="1366" cy="494" fill="hsl(293, 22%, 52%)" opacity="0.29"></circle><circle r="12.5" cx="139" cy="20" fill="hsl(276, 22%, 52%)" opacity="0.77"></circle><circle r="13.5" cx="556" cy="265" fill="hsl(276, 22%, 52%)" opacity="0.76"></circle><circle r="8.5" cx="633" cy="332" fill="hsl(281, 22%, 52%)" opacity="0.51"></circle><circle r="15" cx="760" cy="359" fill="hsl(255, 22%, 52%)" opacity="0.84"></circle><circle r="12" cx="1195" cy="274" fill="hsl(263, 22%, 52%)" opacity="0.27"></circle><circle r="9.5" cx="290" cy="274" fill="hsl(270, 22%, 52%)" opacity="0.17"></circle><circle r="12" cx="1372" cy="742" fill="hsl(293, 22%, 52%)" opacity="0.25"></circle><circle r="7" cx="440" cy="76" fill="hsl(279, 22%, 52%)" opacity="0.42"></circle><circle r="15" cx="1227" cy="527" fill="hsl(277, 22%, 52%)" opacity="0.83"></circle><circle r="10" cx="639" cy="696" fill="hsl(281, 22%, 52%)" opacity="0.62"></circle><circle r="12.5" cx="29" cy="24" fill="hsl(205, 22%, 52%)" opacity="0.57"></circle><circle r="8" cx="1300" cy="13" fill="hsl(269, 22%, 52%)" opacity="0.50"></circle><circle r="14.5" cx="377" cy="463" fill="hsl(265, 22%, 52%)" opacity="0.65"></circle><circle r="11" cx="119" cy="780" fill="hsl(246, 22%, 52%)" opacity="0.76"></circle><circle r="7.5" cx="299" cy="536" fill="hsl(270, 22%, 52%)" opacity="0.22"></circle><circle r="9" cx="229" cy="639" fill="hsl(271, 22%, 52%)" opacity="0.61"></circle><circle r="11" cx="864" cy="692" fill="hsl(221, 22%, 52%)" opacity="0.77"></circle><circle r="17.5" cx="579" cy="505" fill="hsl(278, 22%, 52%)" opacity="0.44"></circle><circle r="10" cx="821" cy="693" fill="hsl(238, 22%, 52%)" opacity="0.13"></circle><circle r="8.5" cx="272" cy="153" fill="hsl(283, 22%, 52%)" opacity="1.00"></circle><circle r="11.5" cx="686" cy="378" fill="hsl(278, 22%, 52%)" opacity="0.76"></circle><circle r="12" cx="381" cy="182" fill="hsl(264, 22%, 52%)" opacity="0.75"></circle><circle r="11" cx="329" cy="152" fill="hsl(279, 22%, 52%)" opacity="0.60"></circle><circle r="12" cx="596" cy="670" fill="hsl(278, 22%, 52%)" opacity="0.30"></circle><circle r="7" cx="822" cy="426" fill="hsl(230, 22%, 52%)" opacity="0.47"></circle><circle r="12.5" cx="1338" cy="732" fill="hsl(293, 22%, 52%)" opacity="0.27"></circle><circle r="13.5" cx="159" cy="414" fill="hsl(261, 22%, 52%)" opacity="0.53"></circle><circle r="12" cx="1105" cy="475" fill="hsl(229, 22%, 52%)" opacity="0.47"></circle><circle r="9" cx="1111" cy="192" fill="hsl(238, 22%, 52%)" opacity="0.44"></circle><circle r="11.5" cx="872" cy="139" fill="hsl(192, 22%, 52%)" opacity="0.38"></circle><circle r="9" cx="978" cy="167" fill="hsl(192, 22%, 52%)" opacity="0.96"></circle><circle r="13" cx="342" cy="496" fill="hsl(267, 22%, 52%)" opacity="0.80"></circle><circle r="7" cx="102" cy="622" fill="hsl(237, 22%, 52%)" opacity="0.50"></circle><circle r="12.5" cx="322" cy="775" fill="hsl(268, 22%, 52%)" opacity="0.19"></circle><circle r="9.5" cx="81" cy="598" fill="hsl(226, 22%, 52%)" opacity="0.60"></circle><circle r="13" cx="729" cy="779" fill="hsl(269, 22%, 52%)" opacity="0.39"></circle><circle r="7.5" cx="929" cy="724" fill="hsl(203, 22%, 52%)" opacity="0.27"></circle><circle r="11" cx="725" cy="47" fill="hsl(229, 22%, 52%)" opacity="0.33"></circle><circle r="8.5" cx="263" cy="603" fill="hsl(272, 22%, 52%)" opacity="0.99"></circle><circle r="16" cx="547" cy="388" fill="hsl(273, 22%, 52%)" opacity="0.54"></circle><circle r="18" cx="1030" cy="368" fill="hsl(208, 22%, 52%)" opacity="0.81"></circle><circle r="11" cx="444" cy="127" fill="hsl(272, 22%, 52%)" opacity="0.22"></circle><circle r="14.5" cx="162" cy="63" fill="hsl(283, 22%, 52%)" opacity="0.13"></circle><circle r="8.5" cx="486" cy="294" fill="hsl(265, 22%, 52%)" opacity="0.94"></circle><circle r="11.5" cx="379" cy="266" fill="hsl(264, 22%, 52%)" opacity="0.65"></circle><circle r="6.5" cx="1412" cy="654" fill="hsl(291, 22%, 52%)" opacity="0.64"></circle><circle r="13" cx="109" cy="303" fill="hsl(237, 22%, 52%)" opacity="0.42"></circle><circle r="17" cx="623" cy="772" fill="hsl(281, 22%, 52%)" opacity="0.40"></circle><circle r="20.5" cx="1391" cy="125" fill="hsl(300, 22%, 52%)" opacity="0.25"></circle><circle r="12.5" cx="614" cy="220" fill="hsl(280, 22%, 52%)" opacity="0.70"></circle><circle r="13" cx="119" cy="64" fill="hsl(263, 22%, 52%)" opacity="0.85"></circle><circle r="13.5" cx="837" cy="286" fill="hsl(230, 22%, 52%)" opacity="0.58"></circle><circle r="7" cx="527" cy="45" fill="hsl(273, 22%, 52%)" opacity="0.40"></circle><circle r="10" cx="354" cy="624" fill="hsl(267, 22%, 52%)" opacity="0.44"></circle><circle r="9.5" cx="683" cy="574" fill="hsl(278, 22%, 52%)" opacity="0.73"></circle><circle r="10.5" cx="579" cy="620" fill="hsl(278, 22%, 52%)" opacity="0.14"></circle><circle r="9" cx="1108" cy="257" fill="hsl(229, 22%, 52%)" opacity="0.15"></circle><circle r="7" cx="811" cy="377" fill="hsl(238, 22%, 52%)" opacity="0.39"></circle><circle r="8.5" cx="1117" cy="438" fill="hsl(238, 22%, 52%)" opacity="0.53"></circle><circle r="9" cx="630" cy="299" fill="hsl(281, 22%, 52%)" opacity="0.55"></circle><circle r="12" cx="140" cy="369" fill="hsl(254, 22%, 52%)" opacity="0.29"></circle><circle r="13" cx="414" cy="235" fill="hsl(263, 22%, 52%)" opacity="0.27"></circle><circle r="15.5" cx="156" cy="685" fill="hsl(261, 22%, 52%)" opacity="0.92"></circle><circle r="8.5" cx="755" cy="479" fill="hsl(263, 22%, 52%)" opacity="0.79"></circle><circle r="10" cx="937" cy="507" fill="hsl(200, 22%, 52%)" opacity="0.97"></circle><circle r="10" cx="554" cy="670" fill="hsl(273, 22%, 52%)" opacity="0.41"></circle><circle r="11" cx="639" cy="612" fill="hsl(281, 22%, 52%)" opacity="0.58"></circle><circle r="11" cx="984" cy="272" fill="hsl(200, 22%, 52%)" opacity="0.86"></circle><circle r="12.5" cx="357" cy="587" fill="hsl(265, 22%, 52%)" opacity="0.90"></circle><circle r="11.5" cx="724" cy="526" fill="hsl(269, 22%, 52%)" opacity="0.44"></circle><circle r="12.5" cx="1336" cy="781" fill="hsl(293, 22%, 52%)" opacity="0.71"></circle><circle r="12" cx="578" cy="70" fill="hsl(264, 22%, 52%)" opacity="0.48"></circle><circle r="15" cx="1330" cy="402" fill="hsl(292, 22%, 52%)" opacity="0.44"></circle><circle r="12" cx="527" cy="234" fill="hsl(270, 22%, 52%)" opacity="0.46"></circle><circle r="10" cx="1002" cy="678" fill="hsl(203, 22%, 52%)" opacity="0.54"></circle><circle r="14.5" cx="368" cy="122" fill="hsl(279, 22%, 52%)" opacity="0.47"></circle><circle r="20" cx="1263" cy="629" fill="hsl(282, 22%, 52%)" opacity="0.82"></circle><circle r="8" cx="550" cy="13" fill="hsl(277, 22%, 52%)" opacity="0.91"></circle><circle r="14" cx="1295" cy="735" fill="hsl(290, 22%, 52%)" opacity="0.45"></circle><circle r="9.5" cx="918" cy="478" fill="hsl(203, 22%, 52%)" opacity="0.72"></circle><circle r="12" cx="736" cy="685" fill="hsl(263, 22%, 52%)" opacity="0.90"></circle><circle r="7" cx="1049" cy="72" fill="hsl(176, 22%, 52%)" opacity="0.11"></circle><circle r="14" cx="740" cy="728" fill="hsl(263, 22%, 52%)" opacity="0.95"></circle><circle r="12" cx="1227" cy="188" fill="hsl(277, 22%, 52%)" opacity="0.18"></circle><circle r="9.5" cx="17" cy="240" fill="hsl(189, 22%, 52%)" opacity="0.63"></circle><circle r="7" cx="310" cy="560" fill="hsl(270, 22%, 52%)" opacity="0.40"></circle><circle r="14" cx="881" cy="333" fill="hsl(214, 22%, 52%)" opacity="0.30"></circle><circle r="13" cx="1352" cy="72" fill="hsl(295, 22%, 52%)" opacity="0.61"></circle><circle r="8" cx="988" cy="625" fill="hsl(200, 22%, 52%)" opacity="0.20"></circle><circle r="6.5" cx="1023" cy="83" fill="hsl(168, 22%, 52%)" opacity="0.86"></circle><circle r="9.5" cx="1063" cy="648" fill="hsl(214, 22%, 52%)" opacity="0.48"></circle><circle r="12.5" cx="72" cy="409" fill="hsl(226, 22%, 52%)" opacity="0.32"></circle><circle r="11" cx="1101" cy="373" fill="hsl(229, 22%, 52%)" opacity="0.50"></circle><circle r="11" cx="314" cy="726" fill="hsl(268, 22%, 52%)" opacity="0.66"></circle><circle r="12.5" cx="112" cy="196" fill="hsl(246, 22%, 52%)" opacity="0.18"></circle><circle r="10.5" cx="341" cy="658" fill="hsl(267, 22%, 52%)" opacity="0.70"></circle><circle r="17.5" cx="211" cy="143" fill="hsl(281, 22%, 52%)" opacity="0.80"></circle><circle r="15" cx="105" cy="246" fill="hsl(237, 22%, 52%)" opacity="0.12"></circle><circle r="10" cx="56" cy="652" fill="hsl(214, 22%, 52%)" opacity="0.46"></circle><circle r="13.5" cx="491" cy="521" fill="hsl(267, 22%, 52%)" opacity="0.24"></circle><circle r="7.5" cx="1096" cy="45" fill="hsl(185, 22%, 52%)" opacity="0.91"></circle><circle r="10.5" cx="250" cy="765" fill="hsl(272, 22%, 52%)" opacity="0.95"></circle><circle r="5.5" cx="946" cy="14" fill="hsl(129, 22%, 52%)" opacity="0.58"></circle><circle r="17" cx="563" cy="773" fill="hsl(276, 22%, 52%)" opacity="0.53"></circle><circle r="12.5" cx="406" cy="46" fill="hsl(286, 22%, 52%)" opacity="0.30"></circle><circle r="7" cx="1278" cy="28" fill="hsl(268, 22%, 52%)" opacity="0.13"></circle><circle r="10.5" cx="298" cy="237" fill="hsl(270, 22%, 52%)" opacity="0.79"></circle><circle r="9.5" cx="240" cy="709" fill="hsl(271, 22%, 52%)" opacity="0.93"></circle><circle r="7" cx="891" cy="174" fill="hsl(197, 22%, 52%)" opacity="0.50"></circle><circle r="8.5" cx="846" cy="747" fill="hsl(221, 22%, 52%)" opacity="0.34"></circle><circle r="19" cx="1335" cy="549" fill="hsl(293, 22%, 52%)" opacity="0.10"></circle><circle r="14.5" cx="242" cy="342" fill="hsl(271, 22%, 52%)" opacity="0.13"></circle><circle r="12.5" cx="1084" cy="333" fill="hsl(221, 22%, 52%)" opacity="0.50"></circle><circle r="9" cx="554" cy="640" fill="hsl(273, 22%, 52%)" opacity="0.38"></circle><circle r="9" cx="495" cy="785" fill="hsl(267, 22%, 52%)" opacity="0.41"></circle><circle r="9.5" cx="1072" cy="109" fill="hsl(195, 22%, 52%)" opacity="0.97"></circle><circle r="12" cx="171" cy="585" fill="hsl(261, 22%, 52%)" opacity="0.39"></circle><circle r="8.5" cx="911" cy="638" fill="hsl(203, 22%, 52%)" opacity="0.97"></circle><circle r="10.5" cx="250" cy="52" fill="hsl(300, 22%, 52%)" opacity="0.11"></circle><circle r="16" cx="473" cy="165" fill="hsl(266, 22%, 52%)" opacity="0.50"></circle><circle r="10" cx="161" cy="519" fill="hsl(261, 22%, 52%)" opacity="0.90"></circle><circle r="5.5" cx="953" cy="708" fill="hsl(200, 22%, 52%)" opacity="0.70"></circle><circle r="14" cx="362" cy="227" fill="hsl(265, 22%, 52%)" opacity="0.90"></circle><circle r="7" cx="458" cy="59" fill="hsl(280, 22%, 52%)" opacity="0.37"></circle><circle r="11.5" cx="508" cy="197" fill="hsl(267, 22%, 52%)" opacity="0.58"></circle><circle r="13" cx="119" cy="726" fill="hsl(246, 22%, 52%)" opacity="0.46"></circle><circle r="7" cx="950" cy="633" fill="hsl(200, 22%, 52%)" opacity="0.63"></circle><circle r="6" cx="1403" cy="294" fill="hsl(291, 22%, 52%)" opacity="0.56"></circle><circle r="11.5" cx="184" cy="453" fill="hsl(266, 22%, 52%)" opacity="0.95"></circle><circle r="11.5" cx="1157" cy="428" fill="hsl(255, 22%, 52%)" opacity="0.22"></circle><circle r="10.5" cx="1008" cy="780" fill="hsl(203, 22%, 52%)" opacity="0.75"></circle><circle r="13" cx="653" cy="423" fill="hsl(280, 22%, 52%)" opacity="0.61"></circle><circle r="13" cx="1206" cy="769" fill="hsl(270, 22%, 52%)" opacity="0.30"></circle><circle r="11" cx="1072" cy="149" fill="hsl(211, 22%, 52%)" opacity="0.17"></circle><circle r="14.5" cx="820" cy="607" fill="hsl(238, 22%, 52%)" opacity="0.24"></circle><circle r="11" cx="485" cy="237" fill="hsl(265, 22%, 52%)" opacity="0.78"></circle><circle r="6.5" cx="440" cy="98" fill="hsl(275, 22%, 52%)" opacity="0.48"></circle><circle r="11" cx="800" cy="651" fill="hsl(238, 22%, 52%)" opacity="0.70"></circle><circle r="12" cx="206" cy="606" fill="hsl(269, 22%, 52%)" opacity="0.47"></circle><circle r="10.5" cx="369" cy="783" fill="hsl(265, 22%, 52%)" opacity="0.77"></circle><circle r="9" cx="1216" cy="39" fill="hsl(236, 22%, 52%)" opacity="0.79"></circle><circle r="11.5" cx="847" cy="648" fill="hsl(221, 22%, 52%)" opacity="0.92"></circle><circle r="14" cx="290" cy="184" fill="hsl(270, 22%, 52%)" opacity="0.99"></circle><circle r="9" cx="1098" cy="410" fill="hsl(229, 22%, 52%)" opacity="0.40"></circle><circle r="16.5" cx="1197" cy="95" fill="hsl(251, 22%, 52%)" opacity="0.22"></circle><circle r="15" cx="766" cy="91" fill="hsl(218, 22%, 52%)" opacity="0.29"></circle><circle r="9.5" cx="762" cy="656" fill="hsl(255, 22%, 52%)" opacity="0.72"></circle><circle r="9.5" cx="450" cy="700" fill="hsl(264, 22%, 52%)" opacity="0.53"></circle><circle r="15" cx="856" cy="566" fill="hsl(221, 22%, 52%)" opacity="0.84"></circle><circle r="12.5" cx="1380" cy="695" fill="hsl(293, 22%, 52%)" opacity="0.52"></circle><circle r="10" cx="121" cy="655" fill="hsl(246, 22%, 52%)" opacity="0.22"></circle><circle r="11.5" cx="706" cy="639" fill="hsl(275, 22%, 52%)" opacity="0.60"></circle><circle r="18" cx="343" cy="74" fill="hsl(290, 22%, 52%)" opacity="0.35"></circle><circle r="7.5" cx="972" cy="735" fill="hsl(199, 22%, 52%)" opacity="0.13"></circle><circle r="13" cx="1009" cy="312" fill="hsl(203, 22%, 52%)" opacity="0.96"></circle><circle r="9.5" cx="652" cy="372" fill="hsl(280, 22%, 52%)" opacity="0.60"></circle><circle r="8" cx="826" cy="726" fill="hsl(230, 22%, 52%)" opacity="0.23"></circle><circle r="15" cx="604" cy="445" fill="hsl(280, 22%, 52%)" opacity="0.74"></circle><circle r="8" cx="971" cy="665" fill="hsl(199, 22%, 52%)" opacity="0.89"></circle><circle r="13" cx="382" cy="746" fill="hsl(264, 22%, 52%)" opacity="0.88"></circle><circle r="7.5" cx="930" cy="684" fill="hsl(203, 22%, 52%)" opacity="0.13"></circle><circle r="11.5" cx="1264" cy="223" fill="hsl(282, 22%, 52%)" opacity="0.32"></circle><circle r="13.5" cx="313" cy="22" fill="hsl(300, 22%, 52%)" opacity="0.69"></circle><circle r="10" cx="912" cy="276" fill="hsl(203, 22%, 52%)" opacity="0.59"></circle><circle r="12.5" cx="794" cy="247" fill="hsl(247, 22%, 52%)" opacity="0.14"></circle><circle r="7.5" cx="18" cy="77" fill="hsl(189, 22%, 52%)" opacity="0.77"></circle><circle r="14.5" cx="1163" cy="712" fill="hsl(255, 22%, 52%)" opacity="0.59"></circle><circle r="14" cx="199" cy="91" fill="hsl(285, 22%, 52%)" opacity="0.51"></circle><circle r="8.5" cx="885" cy="662" fill="hsl(214, 22%, 52%)" opacity="0.66"></circle><circle r="15.5" cx="362" cy="403" fill="hsl(265, 22%, 52%)" opacity="0.98"></circle><circle r="12.5" cx="1277" cy="769" fill="hsl(286, 22%, 52%)" opacity="0.74"></circle><circle r="13.5" cx="1030" cy="236" fill="hsl(208, 22%, 52%)" opacity="0.72"></circle><circle r="11.5" cx="671" cy="649" fill="hsl(278, 22%, 52%)" opacity="0.80"></circle><circle r="15.5" cx="290" cy="68" fill="hsl(295, 22%, 52%)" opacity="0.98"></circle><circle r="20" cx="698" cy="316" fill="hsl(275, 22%, 52%)" opacity="0.17"></circle><circle r="14" cx="794" cy="171" fill="hsl(235, 22%, 52%)" opacity="0.19"></circle><circle r="9.5" cx="883" cy="233" fill="hsl(214, 22%, 52%)" opacity="0.18"></circle><circle r="14" cx="446" cy="341" fill="hsl(264, 22%, 52%)" opacity="0.58"></circle><circle r="8.5" cx="268" cy="715" fill="hsl(271, 22%, 52%)" opacity="0.99"></circle><circle r="11.5" cx="854" cy="185" fill="hsl(221, 22%, 52%)" opacity="0.27"></circle><circle r="10" cx="1406" cy="343" fill="hsl(291, 22%, 52%)" opacity="0.34"></circle><circle r="9.5" cx="1132" cy="70" fill="hsl(207, 22%, 52%)" opacity="0.11"></circle><circle r="8.5" cx="523" cy="18" fill="hsl(280, 22%, 52%)" opacity="0.37"></circle><circle r="15.5" cx="672" cy="771" fill="hsl(278, 22%, 52%)" opacity="0.83"></circle><circle r="15.5" cx="1280" cy="410" fill="hsl(286, 22%, 52%)" opacity="0.33"></circle><circle r="10.5" cx="402" cy="566" fill="hsl(263, 22%, 52%)" opacity="0.89"></circle><circle r="7" cx="12" cy="287" fill="hsl(189, 22%, 52%)" opacity="0.34"></circle><circle r="5.5" cx="909" cy="211" fill="hsl(208, 22%, 52%)" opacity="0.68"></circle><circle r="15" cx="718" cy="571" fill="hsl(269, 22%, 52%)" opacity="0.52"></circle><circle r="11" cx="1232" cy="443" fill="hsl(277, 22%, 52%)" opacity="0.51"></circle><circle r="11" cx="1142" cy="108" fill="hsl(228, 22%, 52%)" opacity="0.22"></circle><circle r="11" cx="611" cy="403" fill="hsl(280, 22%, 52%)" opacity="0.82"></circle><circle r="13.5" cx="323" cy="441" fill="hsl(268, 22%, 52%)" opacity="0.57"></circle><circle r="15" cx="1235" cy="282" fill="hsl(277, 22%, 52%)" opacity="0.20"></circle><circle r="9" cx="502" cy="62" fill="hsl(275, 22%, 52%)" opacity="0.10"></circle><circle r="16" cx="1200" cy="673" fill="hsl(263, 22%, 52%)" opacity="0.56"></circle><circle r="10.5" cx="685" cy="46" fill="hsl(245, 22%, 52%)" opacity="0.71"></circle><circle r="10.5" cx="90" cy="683" fill="hsl(237, 22%, 52%)" opacity="0.93"></circle><circle r="10" cx="45" cy="195" fill="hsl(214, 22%, 52%)" opacity="0.21"></circle><circle r="12.5" cx="1115" cy="303" fill="hsl(238, 22%, 52%)" opacity="0.94"></circle><circle r="7.5" cx="457" cy="35" fill="hsl(284, 22%, 52%)" opacity="0.11"></circle><circle r="14" cx="200" cy="740" fill="hsl(269, 22%, 52%)" opacity="0.56"></circle><circle r="13.5" cx="659" cy="276" fill="hsl(280, 22%, 52%)" opacity="0.53"></circle><circle r="14" cx="1179" cy="593" fill="hsl(263, 22%, 52%)" opacity="0.14"></circle><circle r="13.5" cx="488" cy="433" fill="hsl(265, 22%, 52%)" opacity="0.76"></circle><circle r="11" cx="44" cy="779" fill="hsl(202, 22%, 52%)" opacity="0.45"></circle><circle r="13" cx="1180" cy="522" fill="hsl(263, 22%, 52%)" opacity="0.29"></circle><circle r="13" cx="353" cy="716" fill="hsl(267, 22%, 52%)" opacity="0.51"></circle><circle r="6" cx="252" cy="624" fill="hsl(272, 22%, 52%)" opacity="0.88"></circle><circle r="14" cx="347" cy="541" fill="hsl(267, 22%, 52%)" opacity="0.52"></circle><circle r="7.5" cx="299" cy="320" fill="hsl(270, 22%, 52%)" opacity="0.43"></circle><circle r="15" cx="958" cy="369" fill="hsl(199, 22%, 52%)" opacity="0.31"></circle><circle r="18.5" cx="1229" cy="342" fill="hsl(277, 22%, 52%)" opacity="0.68"></circle><circle r="16" cx="465" cy="389" fill="hsl(264, 22%, 52%)" opacity="0.98"></circle><circle r="14.5" cx="652" cy="153" fill="hsl(266, 22%, 52%)" opacity="0.16"></circle><circle r="10" cx="317" cy="292" fill="hsl(268, 22%, 52%)" opacity="0.39"></circle><circle r="14" cx="28" cy="378" fill="hsl(202, 22%, 52%)" opacity="0.71"></circle><circle r="10" cx="513" cy="116" fill="hsl(268, 22%, 52%)" opacity="0.93"></circle><circle r="16" cx="787" cy="313" fill="hsl(247, 22%, 52%)" opacity="0.86"></circle><circle r="4.5" cx="1415" cy="784" fill="hsl(291, 22%, 52%)" opacity="0.72"></circle><circle r="10.5" cx="737" cy="625" fill="hsl(263, 22%, 52%)" opacity="0.71"></circle><circle r="8.5" cx="591" cy="588" fill="hsl(278, 22%, 52%)" opacity="0.91"></circle><circle r="13.5" cx="216" cy="472" fill="hsl(269, 22%, 52%)" opacity="0.40"></circle><circle r="10.5" cx="74" cy="729" fill="hsl(226, 22%, 52%)" opacity="0.52"></circle><circle r="20.5" cx="1339" cy="265" fill="hsl(293, 22%, 52%)" opacity="0.29"></circle><circle r="9.5" cx="462" cy="463" fill="hsl(264, 22%, 52%)" opacity="0.70"></circle><circle r="13" cx="245" cy="88" fill="hsl(297, 22%, 52%)" opacity="0.46"></circle><circle r="14" cx="206" cy="562" fill="hsl(269, 22%, 52%)" opacity="0.55"></circle><circle r="10" cx="785" cy="694" fill="hsl(247, 22%, 52%)" opacity="0.28"></circle><circle r="8" cx="45" cy="123" fill="hsl(218, 22%, 52%)" opacity="0.29"></circle><circle r="9" cx="970" cy="550" fill="hsl(199, 22%, 52%)" opacity="0.77"></circle><circle r="10" cx="263" cy="256" fill="hsl(272, 22%, 52%)" opacity="0.49"></circle><circle r="11.5" cx="570" cy="714" fill="hsl(276, 22%, 52%)" opacity="0.33"></circle><circle r="11" cx="830" cy="488" fill="hsl(230, 22%, 52%)" opacity="0.56"></circle><circle r="12" cx="884" cy="737" fill="hsl(214, 22%, 52%)" opacity="0.18"></circle><circle r="12" cx="135" cy="614" fill="hsl(254, 22%, 52%)" opacity="0.33"></circle><circle r="14" cx="295" cy="402" fill="hsl(270, 22%, 52%)" opacity="0.65"></circle><circle r="8" cx="954" cy="604" fill="hsl(200, 22%, 52%)" opacity="0.94"></circle><circle r="17" cx="1395" cy="540" fill="hsl(293, 22%, 52%)" opacity="0.58"></circle><circle r="15" cx="87" cy="26" fill="hsl(237, 22%, 52%)" opacity="0.84"></circle><circle r="9.5" cx="1407" cy="476" fill="hsl(291, 22%, 52%)" opacity="0.37"></circle><circle r="19" cx="233" cy="199" fill="hsl(271, 22%, 52%)" opacity="0.12"></circle><circle r="10" cx="329" cy="331" fill="hsl(268, 22%, 52%)" opacity="0.75"></circle><circle r="9.5" cx="869" cy="501" fill="hsl(214, 22%, 52%)" opacity="0.44"></circle><circle r="8.5" cx="186" cy="786" fill="hsl(266, 22%, 52%)" opacity="0.52"></circle><circle r="12" cx="1335" cy="25" fill="hsl(285, 22%, 52%)" opacity="0.92"></circle><circle r="19" cx="746" cy="267" fill="hsl(263, 22%, 52%)" opacity="0.11"></circle><circle r="10" cx="963" cy="780" fill="hsl(199, 22%, 52%)" opacity="0.38"></circle><circle r="11" cx="1405" cy="49" fill="hsl(290, 22%, 52%)" opacity="0.74"></circle><circle r="10" cx="581" cy="160" fill="hsl(273, 22%, 52%)" opacity="0.73"></circle><circle r="10.5" cx="125" cy="502" fill="hsl(246, 22%, 52%)" opacity="0.95"></circle><circle r="8" cx="1191" cy="422" fill="hsl(263, 22%, 52%)" opacity="0.28"></circle><circle r="12.5" cx="627" cy="646" fill="hsl(281, 22%, 52%)" opacity="0.68"></circle><circle r="6.5" cx="280" cy="736" fill="hsl(271, 22%, 52%)" opacity="0.73"></circle><circle r="7" cx="936" cy="658" fill="hsl(200, 22%, 52%)" opacity="0.85"></circle><circle r="8" cx="965" cy="134" fill="hsl(181, 22%, 52%)" opacity="0.74"></circle><circle r="9.5" cx="212" cy="14" fill="hsl(297, 22%, 52%)" opacity="0.45"></circle><circle r="13" cx="1154" cy="284" fill="hsl(247, 22%, 52%)" opacity="0.60"></circle></svg>